<mxfile host="Electron" agent="Mozilla/5.0 (Macintosh; Intel Mac OS X 10_15_7) AppleWebKit/537.36 (KHTML, like Gecko) draw.io/24.7.17 Chrome/128.0.6613.36 Electron/32.0.1 Safari/537.36" version="24.7.17">
  <diagram name="Page-1" id="SijFvWRQ9d3JYZ7rfSls">
    <mxGraphModel dx="2564" dy="1537" grid="0" gridSize="10" guides="0" tooltips="1" connect="1" arrows="1" fold="1" page="1" pageScale="1" pageWidth="850" pageHeight="1100" math="1" shadow="0">
      <root>
        <mxCell id="0" />
        <mxCell id="1" parent="0" />
        <mxCell id="hiO2bRL1TF32k89wcuFY-95" value="" style="rounded=1;whiteSpace=wrap;html=1;arcSize=8;dashed=1;dashPattern=8 8;fillColor=#fff2cc;strokeColor=#d6b656;" vertex="1" parent="1">
          <mxGeometry x="-105" y="231" width="1263" height="575" as="geometry" />
        </mxCell>
        <mxCell id="hiO2bRL1TF32k89wcuFY-91" value="" style="group;flipH=1;" vertex="1" connectable="0" parent="1">
          <mxGeometry x="590" y="320" width="537" height="423" as="geometry" />
        </mxCell>
        <mxCell id="hiO2bRL1TF32k89wcuFY-66" value="" style="rounded=1;whiteSpace=wrap;html=1;arcSize=8;dashed=1;dashPattern=8 8;fillColor=#d5e8d4;strokeColor=#82b366;" vertex="1" parent="hiO2bRL1TF32k89wcuFY-91">
          <mxGeometry width="480" height="420" as="geometry" />
        </mxCell>
        <mxCell id="hiO2bRL1TF32k89wcuFY-67" value="&lt;sub style=&quot;font-size: 16px;&quot;&gt;&lt;span style=&quot;font-size: 16px;&quot;&gt;DG&lt;/span&gt;&lt;i style=&quot;font-size: 16px;&quot;&gt;i&lt;/i&gt;&lt;/sub&gt;" style="rounded=0;whiteSpace=wrap;html=1;fontFamily=Times New Roman;fontSize=16;" vertex="1" parent="hiO2bRL1TF32k89wcuFY-91">
          <mxGeometry x="140" y="73.2000000000001" width="100" height="60" as="geometry" />
        </mxCell>
        <mxCell id="hiO2bRL1TF32k89wcuFY-68" value="$$V_{\text{ref}}$$" style="text;html=1;align=center;verticalAlign=middle;resizable=0;points=[];autosize=1;strokeColor=none;fillColor=none;fontSize=20;" vertex="1" parent="hiO2bRL1TF32k89wcuFY-91">
          <mxGeometry x="-30" y="65.00000000000006" width="180" height="40" as="geometry" />
        </mxCell>
        <mxCell id="hiO2bRL1TF32k89wcuFY-69" value="" style="pointerEvents=1;verticalLabelPosition=bottom;shadow=0;dashed=0;align=center;html=1;verticalAlign=top;shape=mxgraph.electrical.resistors.resistor_2;" vertex="1" parent="hiO2bRL1TF32k89wcuFY-91">
          <mxGeometry x="280" y="99.2000000000001" width="40" height="8" as="geometry" />
        </mxCell>
        <mxCell id="hiO2bRL1TF32k89wcuFY-70" style="edgeStyle=orthogonalEdgeStyle;rounded=0;orthogonalLoop=1;jettySize=auto;html=1;endArrow=classic;endFill=1;" edge="1" parent="hiO2bRL1TF32k89wcuFY-91">
          <mxGeometry relative="1" as="geometry">
            <mxPoint x="380" y="194.2000000000001" as="targetPoint" />
            <mxPoint x="360.0000000000002" y="102.62857142857166" as="sourcePoint" />
          </mxGeometry>
        </mxCell>
        <mxCell id="hiO2bRL1TF32k89wcuFY-71" value="" style="pointerEvents=1;verticalLabelPosition=bottom;shadow=0;dashed=0;align=center;html=1;verticalAlign=top;shape=mxgraph.electrical.inductors.inductor_3;" vertex="1" parent="hiO2bRL1TF32k89wcuFY-91">
          <mxGeometry x="320" y="100.00000000000006" width="40" height="3.2" as="geometry" />
        </mxCell>
        <mxCell id="hiO2bRL1TF32k89wcuFY-73" style="edgeStyle=orthogonalEdgeStyle;rounded=0;orthogonalLoop=1;jettySize=auto;html=1;endArrow=none;endFill=0;startArrow=classic;startFill=1;" edge="1" parent="hiO2bRL1TF32k89wcuFY-91" source="hiO2bRL1TF32k89wcuFY-74" target="hiO2bRL1TF32k89wcuFY-77">
          <mxGeometry relative="1" as="geometry" />
        </mxCell>
        <mxCell id="hiO2bRL1TF32k89wcuFY-74" value="Primary Controller" style="rounded=0;whiteSpace=wrap;html=1;fontFamily=Times New Roman;fontSize=16;" vertex="1" parent="hiO2bRL1TF32k89wcuFY-91">
          <mxGeometry x="320" y="193.2000000000001" width="120" height="60" as="geometry" />
        </mxCell>
        <mxCell id="hiO2bRL1TF32k89wcuFY-75" style="edgeStyle=orthogonalEdgeStyle;rounded=0;orthogonalLoop=1;jettySize=auto;html=1;entryX=0.531;entryY=1.032;entryDx=0;entryDy=0;entryPerimeter=0;" edge="1" parent="hiO2bRL1TF32k89wcuFY-91" source="hiO2bRL1TF32k89wcuFY-74" target="hiO2bRL1TF32k89wcuFY-67">
          <mxGeometry relative="1" as="geometry" />
        </mxCell>
        <mxCell id="hiO2bRL1TF32k89wcuFY-76" value="" style="edgeStyle=orthogonalEdgeStyle;rounded=0;orthogonalLoop=1;jettySize=auto;html=1;dashed=1;startArrow=classic;startFill=1;" edge="1" parent="hiO2bRL1TF32k89wcuFY-91" source="hiO2bRL1TF32k89wcuFY-77" target="hiO2bRL1TF32k89wcuFY-78">
          <mxGeometry relative="1" as="geometry" />
        </mxCell>
        <mxCell id="hiO2bRL1TF32k89wcuFY-77" value="Secondary Controller" style="rounded=0;whiteSpace=wrap;html=1;fontFamily=Times New Roman;fontSize=16;" vertex="1" parent="hiO2bRL1TF32k89wcuFY-91">
          <mxGeometry x="320" y="313.2000000000001" width="120" height="60" as="geometry" />
        </mxCell>
        <mxCell id="hiO2bRL1TF32k89wcuFY-78" value="Neighboring DGs" style="whiteSpace=wrap;html=1;fontFamily=Times New Roman;rounded=0;fontSize=16;" vertex="1" parent="hiO2bRL1TF32k89wcuFY-91">
          <mxGeometry x="90" y="313.2000000000001" width="120" height="60" as="geometry" />
        </mxCell>
        <mxCell id="hiO2bRL1TF32k89wcuFY-79" value="Communication&lt;div style=&quot;font-size: 13px;&quot;&gt;Link&lt;/div&gt;" style="text;html=1;align=center;verticalAlign=middle;resizable=0;points=[];autosize=1;strokeColor=none;fillColor=none;fontFamily=Times New Roman;fontSize=13;" vertex="1" parent="hiO2bRL1TF32k89wcuFY-91">
          <mxGeometry x="215" y="350.00000000000006" width="110" height="40" as="geometry" />
        </mxCell>
        <mxCell id="hiO2bRL1TF32k89wcuFY-80" value="" style="endArrow=none;html=1;rounded=0;" edge="1" parent="hiO2bRL1TF32k89wcuFY-91">
          <mxGeometry width="50" height="50" relative="1" as="geometry">
            <mxPoint x="80" y="156.2000000000001" as="sourcePoint" />
            <mxPoint x="80" y="46.2000000000001" as="targetPoint" />
          </mxGeometry>
        </mxCell>
        <mxCell id="hiO2bRL1TF32k89wcuFY-81" value="" style="endArrow=none;html=1;rounded=0;" edge="1" parent="hiO2bRL1TF32k89wcuFY-91">
          <mxGeometry width="50" height="50" relative="1" as="geometry">
            <mxPoint x="250" y="158.2000000000001" as="sourcePoint" />
            <mxPoint x="250" y="48.2000000000001" as="targetPoint" />
          </mxGeometry>
        </mxCell>
        <mxCell id="hiO2bRL1TF32k89wcuFY-82" value="$$V_{i}$$" style="text;html=1;align=center;verticalAlign=middle;resizable=0;points=[];autosize=1;strokeColor=none;fillColor=none;fontSize=20;" vertex="1" parent="hiO2bRL1TF32k89wcuFY-91">
          <mxGeometry x="205" y="35.00000000000006" width="110" height="40" as="geometry" />
        </mxCell>
        <mxCell id="hiO2bRL1TF32k89wcuFY-83" value="$$V_{odi}$$" style="text;html=1;align=center;verticalAlign=middle;resizable=0;points=[];autosize=1;strokeColor=none;fillColor=none;fontSize=20;" vertex="1" parent="hiO2bRL1TF32k89wcuFY-91">
          <mxGeometry x="200" y="305.00000000000006" width="130" height="40" as="geometry" />
        </mxCell>
        <mxCell id="hiO2bRL1TF32k89wcuFY-84" value="" style="endArrow=none;html=1;rounded=0;" edge="1" parent="hiO2bRL1TF32k89wcuFY-91">
          <mxGeometry width="50" height="50" relative="1" as="geometry">
            <mxPoint x="222.71000000000004" y="398.2000000000001" as="sourcePoint" />
            <mxPoint x="222.71000000000004" y="288.2000000000001" as="targetPoint" />
          </mxGeometry>
        </mxCell>
        <mxCell id="hiO2bRL1TF32k89wcuFY-85" value="$$R_i$$" style="text;html=1;align=center;verticalAlign=middle;resizable=0;points=[];autosize=1;strokeColor=none;fillColor=none;fontSize=20;" vertex="1" parent="hiO2bRL1TF32k89wcuFY-91">
          <mxGeometry x="252" y="65.2000000000001" width="100" height="40" as="geometry" />
        </mxCell>
        <mxCell id="hiO2bRL1TF32k89wcuFY-86" value="$$L_i$$" style="text;html=1;align=center;verticalAlign=middle;resizable=0;points=[];autosize=1;strokeColor=none;fillColor=none;fontSize=20;" vertex="1" parent="hiO2bRL1TF32k89wcuFY-91">
          <mxGeometry x="295" y="64.2000000000001" width="90" height="40" as="geometry" />
        </mxCell>
        <mxCell id="hiO2bRL1TF32k89wcuFY-88" value="$$V_{oi}$$" style="text;html=1;align=center;verticalAlign=middle;resizable=0;points=[];autosize=1;strokeColor=none;fillColor=none;fontSize=20;" vertex="1" parent="hiO2bRL1TF32k89wcuFY-91">
          <mxGeometry x="295" y="145.00000000000006" width="120" height="40" as="geometry" />
        </mxCell>
        <mxCell id="hiO2bRL1TF32k89wcuFY-89" value="$$e_{vi}$$" style="text;html=1;align=center;verticalAlign=middle;resizable=0;points=[];autosize=1;strokeColor=none;fillColor=none;fontSize=20;" vertex="1" parent="hiO2bRL1TF32k89wcuFY-91">
          <mxGeometry x="303" y="263.2000000000001" width="120" height="40" as="geometry" />
        </mxCell>
        <mxCell id="hiO2bRL1TF32k89wcuFY-93" style="edgeStyle=orthogonalEdgeStyle;rounded=0;orthogonalLoop=1;jettySize=auto;html=1;entryX=0;entryY=0.5;entryDx=0;entryDy=0;entryPerimeter=0;endArrow=none;endFill=0;" edge="1" parent="hiO2bRL1TF32k89wcuFY-91" source="hiO2bRL1TF32k89wcuFY-67" target="hiO2bRL1TF32k89wcuFY-69">
          <mxGeometry relative="1" as="geometry" />
        </mxCell>
        <mxCell id="hiO2bRL1TF32k89wcuFY-96" value="MicroGrid N" style="text;html=1;align=center;verticalAlign=middle;resizable=0;points=[];autosize=1;strokeColor=none;fillColor=none;fontFamily=Times New Roman;fontSize=18;" vertex="1" parent="hiO2bRL1TF32k89wcuFY-91">
          <mxGeometry x="354" y="386" width="112" height="34" as="geometry" />
        </mxCell>
        <mxCell id="hiO2bRL1TF32k89wcuFY-98" value="Secondary Env" style="text;html=1;align=center;verticalAlign=middle;resizable=0;points=[];autosize=1;strokeColor=none;fillColor=none;fontFamily=Times New Roman;fontSize=18;" vertex="1" parent="hiO2bRL1TF32k89wcuFY-91">
          <mxGeometry x="21" y="5" width="127" height="34" as="geometry" />
        </mxCell>
        <mxCell id="hiO2bRL1TF32k89wcuFY-106" value="" style="endArrow=classic;html=1;rounded=0;" edge="1" parent="hiO2bRL1TF32k89wcuFY-91">
          <mxGeometry width="50" height="50" relative="1" as="geometry">
            <mxPoint x="372" y="103" as="sourcePoint" />
            <mxPoint x="451" y="103" as="targetPoint" />
          </mxGeometry>
        </mxCell>
        <mxCell id="hiO2bRL1TF32k89wcuFY-107" value="Load and BESS" style="text;html=1;align=center;verticalAlign=middle;resizable=0;points=[];autosize=1;strokeColor=none;fillColor=none;fontFamily=Times New Roman;fontSize=18;" vertex="1" parent="hiO2bRL1TF32k89wcuFY-91">
          <mxGeometry x="404" y="107" width="133" height="34" as="geometry" />
        </mxCell>
        <mxCell id="hiO2bRL1TF32k89wcuFY-32" value="" style="rounded=1;whiteSpace=wrap;html=1;arcSize=8;dashed=1;dashPattern=8 8;fillColor=#d5e8d4;strokeColor=#82b366;" vertex="1" parent="1">
          <mxGeometry x="-40" y="330" width="480" height="420" as="geometry" />
        </mxCell>
        <mxCell id="hiO2bRL1TF32k89wcuFY-7" value="&lt;sub style=&quot;font-size: 16px;&quot;&gt;&lt;span style=&quot;font-size: 16px;&quot;&gt;DG&lt;/span&gt;&lt;i style=&quot;font-size: 16px;&quot;&gt;i&lt;/i&gt;&lt;/sub&gt;" style="rounded=0;whiteSpace=wrap;html=1;fontFamily=Times New Roman;fontSize=16;" vertex="1" parent="1">
          <mxGeometry x="200" y="403.2" width="100" height="60" as="geometry" />
        </mxCell>
        <mxCell id="hiO2bRL1TF32k89wcuFY-11" value="$$V_{\text{ref}}$$" style="text;html=1;align=center;verticalAlign=middle;resizable=0;points=[];autosize=1;strokeColor=none;fillColor=none;fontSize=20;" vertex="1" parent="1">
          <mxGeometry x="291" y="391" width="180" height="40" as="geometry" />
        </mxCell>
        <mxCell id="hiO2bRL1TF32k89wcuFY-12" value="" style="pointerEvents=1;verticalLabelPosition=bottom;shadow=0;dashed=0;align=center;html=1;verticalAlign=top;shape=mxgraph.electrical.resistors.resistor_2;" vertex="1" parent="1">
          <mxGeometry x="120" y="429.2" width="40" height="8" as="geometry" />
        </mxCell>
        <mxCell id="hiO2bRL1TF32k89wcuFY-15" style="edgeStyle=orthogonalEdgeStyle;rounded=0;orthogonalLoop=1;jettySize=auto;html=1;endArrow=classic;endFill=1;" edge="1" parent="1">
          <mxGeometry relative="1" as="geometry">
            <mxPoint x="60" y="524.2" as="targetPoint" />
            <mxPoint x="79.99999999999977" y="432.62857142857155" as="sourcePoint" />
          </mxGeometry>
        </mxCell>
        <mxCell id="hiO2bRL1TF32k89wcuFY-13" value="" style="pointerEvents=1;verticalLabelPosition=bottom;shadow=0;dashed=0;align=center;html=1;verticalAlign=top;shape=mxgraph.electrical.inductors.inductor_3;" vertex="1" parent="1">
          <mxGeometry x="80" y="430" width="40" height="3.2" as="geometry" />
        </mxCell>
        <mxCell id="hiO2bRL1TF32k89wcuFY-14" style="edgeStyle=orthogonalEdgeStyle;rounded=0;orthogonalLoop=1;jettySize=auto;html=1;entryX=1;entryY=0.5;entryDx=0;entryDy=0;entryPerimeter=0;endArrow=none;endFill=0;" edge="1" parent="1" source="hiO2bRL1TF32k89wcuFY-7" target="hiO2bRL1TF32k89wcuFY-12">
          <mxGeometry relative="1" as="geometry" />
        </mxCell>
        <mxCell id="hiO2bRL1TF32k89wcuFY-20" style="edgeStyle=orthogonalEdgeStyle;rounded=0;orthogonalLoop=1;jettySize=auto;html=1;endArrow=none;endFill=0;startArrow=classic;startFill=1;" edge="1" parent="1" source="hiO2bRL1TF32k89wcuFY-16" target="hiO2bRL1TF32k89wcuFY-19">
          <mxGeometry relative="1" as="geometry" />
        </mxCell>
        <mxCell id="hiO2bRL1TF32k89wcuFY-16" value="Primary Controller" style="rounded=0;whiteSpace=wrap;html=1;fontFamily=Times New Roman;fontSize=16;" vertex="1" parent="1">
          <mxGeometry y="523.2" width="120" height="60" as="geometry" />
        </mxCell>
        <mxCell id="hiO2bRL1TF32k89wcuFY-17" style="edgeStyle=orthogonalEdgeStyle;rounded=0;orthogonalLoop=1;jettySize=auto;html=1;entryX=0.531;entryY=1.032;entryDx=0;entryDy=0;entryPerimeter=0;" edge="1" parent="1" source="hiO2bRL1TF32k89wcuFY-16" target="hiO2bRL1TF32k89wcuFY-7">
          <mxGeometry relative="1" as="geometry" />
        </mxCell>
        <mxCell id="hiO2bRL1TF32k89wcuFY-22" value="" style="edgeStyle=orthogonalEdgeStyle;rounded=0;orthogonalLoop=1;jettySize=auto;html=1;dashed=1;startArrow=classic;startFill=1;" edge="1" parent="1" source="hiO2bRL1TF32k89wcuFY-19" target="hiO2bRL1TF32k89wcuFY-21">
          <mxGeometry relative="1" as="geometry" />
        </mxCell>
        <mxCell id="hiO2bRL1TF32k89wcuFY-19" value="Secondary Controller" style="rounded=0;whiteSpace=wrap;html=1;fontFamily=Times New Roman;fontSize=16;" vertex="1" parent="1">
          <mxGeometry y="643.2" width="120" height="60" as="geometry" />
        </mxCell>
        <mxCell id="hiO2bRL1TF32k89wcuFY-21" value="Neighboring DGs" style="whiteSpace=wrap;html=1;fontFamily=Times New Roman;rounded=0;fontSize=16;" vertex="1" parent="1">
          <mxGeometry x="230" y="643.2" width="120" height="60" as="geometry" />
        </mxCell>
        <mxCell id="hiO2bRL1TF32k89wcuFY-23" value="Communication&lt;div style=&quot;font-size: 13px;&quot;&gt;Link&lt;/div&gt;" style="text;html=1;align=center;verticalAlign=middle;resizable=0;points=[];autosize=1;strokeColor=none;fillColor=none;fontFamily=Times New Roman;fontSize=13;" vertex="1" parent="1">
          <mxGeometry x="115" y="678.2" width="110" height="40" as="geometry" />
        </mxCell>
        <mxCell id="hiO2bRL1TF32k89wcuFY-25" value="" style="endArrow=none;html=1;rounded=0;" edge="1" parent="1">
          <mxGeometry width="50" height="50" relative="1" as="geometry">
            <mxPoint x="360" y="486.2" as="sourcePoint" />
            <mxPoint x="360" y="376.2" as="targetPoint" />
          </mxGeometry>
        </mxCell>
        <mxCell id="hiO2bRL1TF32k89wcuFY-26" value="" style="endArrow=none;html=1;rounded=0;" edge="1" parent="1">
          <mxGeometry width="50" height="50" relative="1" as="geometry">
            <mxPoint x="190" y="488.2" as="sourcePoint" />
            <mxPoint x="190" y="378.2" as="targetPoint" />
          </mxGeometry>
        </mxCell>
        <mxCell id="hiO2bRL1TF32k89wcuFY-27" value="$$V_{i}$$" style="text;html=1;align=center;verticalAlign=middle;resizable=0;points=[];autosize=1;strokeColor=none;fillColor=none;fontSize=20;" vertex="1" parent="1">
          <mxGeometry x="121" y="365" width="110" height="40" as="geometry" />
        </mxCell>
        <mxCell id="hiO2bRL1TF32k89wcuFY-28" value="$$V_{odi}$$" style="text;html=1;align=center;verticalAlign=middle;resizable=0;points=[];autosize=1;strokeColor=none;fillColor=none;fontSize=20;" vertex="1" parent="1">
          <mxGeometry x="105" y="633.2" width="130" height="40" as="geometry" />
        </mxCell>
        <mxCell id="hiO2bRL1TF32k89wcuFY-29" value="" style="endArrow=none;html=1;rounded=0;" edge="1" parent="1">
          <mxGeometry width="50" height="50" relative="1" as="geometry">
            <mxPoint x="217.28999999999996" y="728.2" as="sourcePoint" />
            <mxPoint x="217.28999999999996" y="618.2" as="targetPoint" />
          </mxGeometry>
        </mxCell>
        <mxCell id="hiO2bRL1TF32k89wcuFY-30" value="$$R_i$$" style="text;html=1;align=center;verticalAlign=middle;resizable=0;points=[];autosize=1;strokeColor=none;fillColor=none;fontSize=20;" vertex="1" parent="1">
          <mxGeometry x="88" y="395.2" width="100" height="40" as="geometry" />
        </mxCell>
        <mxCell id="hiO2bRL1TF32k89wcuFY-31" value="$$L_i$$" style="text;html=1;align=center;verticalAlign=middle;resizable=0;points=[];autosize=1;strokeColor=none;fillColor=none;fontSize=20;" vertex="1" parent="1">
          <mxGeometry x="55" y="394.2" width="90" height="40" as="geometry" />
        </mxCell>
        <mxCell id="hiO2bRL1TF32k89wcuFY-33" value="MicroGrid 1" style="text;html=1;align=center;verticalAlign=middle;resizable=0;points=[];autosize=1;strokeColor=none;fillColor=none;fontFamily=Times New Roman;fontSize=18;" vertex="1" parent="1">
          <mxGeometry x="295" y="706" width="110" height="40" as="geometry" />
        </mxCell>
        <mxCell id="hiO2bRL1TF32k89wcuFY-94" style="edgeStyle=orthogonalEdgeStyle;rounded=0;orthogonalLoop=1;jettySize=auto;html=1;entryX=0;entryY=0.5;entryDx=0;entryDy=0;" edge="1" parent="1" source="hiO2bRL1TF32k89wcuFY-36" target="hiO2bRL1TF32k89wcuFY-67">
          <mxGeometry relative="1" as="geometry">
            <Array as="points">
              <mxPoint x="580" y="540" />
              <mxPoint x="580" y="423" />
            </Array>
          </mxGeometry>
        </mxCell>
        <mxCell id="hiO2bRL1TF32k89wcuFY-36" value="S1" style="ellipse;whiteSpace=wrap;html=1;aspect=fixed;fontFamily=Times New Roman;fontSize=20;" vertex="1" parent="1">
          <mxGeometry x="480" y="500" width="80" height="80" as="geometry" />
        </mxCell>
        <mxCell id="hiO2bRL1TF32k89wcuFY-37" style="edgeStyle=orthogonalEdgeStyle;rounded=0;orthogonalLoop=1;jettySize=auto;html=1;entryX=0.997;entryY=0.391;entryDx=0;entryDy=0;entryPerimeter=0;" edge="1" parent="1" source="hiO2bRL1TF32k89wcuFY-36" target="hiO2bRL1TF32k89wcuFY-7">
          <mxGeometry relative="1" as="geometry">
            <Array as="points">
              <mxPoint x="450" y="540" />
              <mxPoint x="450" y="427" />
            </Array>
          </mxGeometry>
        </mxCell>
        <mxCell id="hiO2bRL1TF32k89wcuFY-39" value="$$V_{oi}$$" style="text;html=1;align=center;verticalAlign=middle;resizable=0;points=[];autosize=1;strokeColor=none;fillColor=none;fontSize=20;" vertex="1" parent="1">
          <mxGeometry x="25" y="475" width="120" height="40" as="geometry" />
        </mxCell>
        <mxCell id="hiO2bRL1TF32k89wcuFY-41" value="$$e_{vi}$$" style="text;html=1;align=center;verticalAlign=middle;resizable=0;points=[];autosize=1;strokeColor=none;fillColor=none;fontSize=20;" vertex="1" parent="1">
          <mxGeometry x="12" y="593.2" width="120" height="40" as="geometry" />
        </mxCell>
        <mxCell id="hiO2bRL1TF32k89wcuFY-97" value="Secondary Env" style="text;html=1;align=center;verticalAlign=middle;resizable=0;points=[];autosize=1;strokeColor=none;fillColor=none;fontFamily=Times New Roman;fontSize=18;" vertex="1" parent="1">
          <mxGeometry x="295" y="335" width="127" height="34" as="geometry" />
        </mxCell>
        <mxCell id="hiO2bRL1TF32k89wcuFY-99" value="Tertiary Env" style="text;html=1;align=center;verticalAlign=middle;resizable=0;points=[];autosize=1;strokeColor=none;fillColor=none;fontFamily=Times New Roman;fontSize=18;" vertex="1" parent="1">
          <mxGeometry x="1024" y="243" width="108" height="34" as="geometry" />
        </mxCell>
        <mxCell id="hiO2bRL1TF32k89wcuFY-100" value="&lt;font style=&quot;font-size: 20px;&quot; face=&quot;Times New Roman&quot;&gt;SCADA&lt;/font&gt;" style="aspect=fixed;sketch=0;html=1;dashed=0;whitespace=wrap;verticalLabelPosition=bottom;verticalAlign=top;fillColor=#2875E2;strokeColor=#ffffff;points=[[0.005,0.63,0],[0.1,0.2,0],[0.9,0.2,0],[0.5,0,0],[0.995,0.63,0],[0.72,0.99,0],[0.5,1,0],[0.28,0.99,0]];shape=mxgraph.kubernetes.icon2;prIcon=sched" vertex="1" parent="1">
          <mxGeometry x="446" y="240" width="127.08" height="122" as="geometry" />
        </mxCell>
        <mxCell id="hiO2bRL1TF32k89wcuFY-101" style="edgeStyle=orthogonalEdgeStyle;rounded=0;orthogonalLoop=1;jettySize=auto;html=1;entryX=0.483;entryY=0;entryDx=0;entryDy=0;entryPerimeter=0;" edge="1" parent="1" source="hiO2bRL1TF32k89wcuFY-100" target="hiO2bRL1TF32k89wcuFY-32">
          <mxGeometry relative="1" as="geometry" />
        </mxCell>
        <mxCell id="hiO2bRL1TF32k89wcuFY-104" value="" style="endArrow=classic;html=1;rounded=0;" edge="1" parent="1">
          <mxGeometry width="50" height="50" relative="1" as="geometry">
            <mxPoint x="61" y="433" as="sourcePoint" />
            <mxPoint x="-30" y="433" as="targetPoint" />
          </mxGeometry>
        </mxCell>
        <mxCell id="hiO2bRL1TF32k89wcuFY-105" value="Load and BESS" style="text;html=1;align=center;verticalAlign=middle;resizable=0;points=[];autosize=1;strokeColor=none;fillColor=none;fontFamily=Times New Roman;fontSize=18;" vertex="1" parent="1">
          <mxGeometry x="-90" y="439" width="133" height="34" as="geometry" />
        </mxCell>
        <mxCell id="hiO2bRL1TF32k89wcuFY-108" style="edgeStyle=orthogonalEdgeStyle;rounded=0;orthogonalLoop=1;jettySize=auto;html=1;entryX=0.534;entryY=0;entryDx=0;entryDy=0;entryPerimeter=0;" edge="1" parent="1" source="hiO2bRL1TF32k89wcuFY-100" target="hiO2bRL1TF32k89wcuFY-66">
          <mxGeometry relative="1" as="geometry" />
        </mxCell>
      </root>
    </mxGraphModel>
  </diagram>
</mxfile>
